<svg width="68" height="68" viewBox="0 0 68 68" fill="none" xmlns="http://www.w3.org/2000/svg">
<circle cx="34" cy="34" r="34" fill="#FBAE3D" fill-opacity="0.2"/>
<path d="M45.9897 34.8485L48 36.8139L38.6236 46L33.641 41.1212L35.6513 39.1558L38.6236 42.0552L45.9897 34.8485ZM31.4872 23C33.0105 23 34.4714 23.5874 35.5485 24.6331C36.6256 25.6788 37.2308 27.097 37.2308 28.5758C37.2308 30.0545 36.6256 31.4728 35.5485 32.5184C34.4714 33.5641 33.0105 34.1515 31.4872 34.1515C29.9639 34.1515 28.503 33.5641 27.4258 32.5184C26.3487 31.4728 25.7436 30.0545 25.7436 28.5758C25.7436 27.097 26.3487 25.6788 27.4258 24.6331C28.503 23.5874 29.9639 23 31.4872 23ZM31.4872 25.7879C30.7255 25.7879 29.9951 26.0816 29.4565 26.6044C28.9179 27.1273 28.6154 27.8364 28.6154 28.5758C28.6154 29.3151 28.9179 30.0243 29.4565 30.5471C29.9951 31.0699 30.7255 31.3636 31.4872 31.3636C32.2488 31.3636 32.9793 31.0699 33.5178 30.5471C34.0564 30.0243 34.359 29.3151 34.359 28.5758C34.359 27.8364 34.0564 27.1273 33.5178 26.6044C32.9793 26.0816 32.2488 25.7879 31.4872 25.7879ZM31.4872 35.5455C32.4636 35.5455 33.641 35.6709 34.9477 35.9079L32.5497 38.2358L31.4872 38.1939C27.2226 38.1939 22.7282 40.2291 22.7282 41.1212V42.6545H31.6308L34.359 45.303H20V41.1212C20 37.4133 27.6533 35.5455 31.4872 35.5455Z" fill="#FBAE3D"/>
</svg>
