<svg width="68" height="68" viewBox="0 0 68 68" fill="none" xmlns="http://www.w3.org/2000/svg">
<circle cx="34" cy="34" r="34" fill="#424853" fill-opacity="0.2"/>
<path d="M34.468 35.0604C33.3658 35.0604 32.3087 35.4983 31.5293 36.2777C30.7499 37.0571 30.312 38.1142 30.312 39.2164C30.312 40.3187 30.7499 41.3758 31.5293 42.1552C32.3087 42.9346 33.3658 43.3725 34.468 43.3725C35.5703 43.3725 36.6274 42.9346 37.4068 42.1552C38.1862 41.3758 38.624 40.3187 38.624 39.2164C38.624 38.1142 38.1862 37.0571 37.4068 36.2777C36.6274 35.4983 35.5703 35.0604 34.468 35.0604ZM32.6869 39.2164C32.6869 38.744 32.8745 38.291 33.2086 37.957C33.5426 37.6229 33.9956 37.4353 34.468 37.4353C34.9404 37.4353 35.3935 37.6229 35.7275 37.957C36.0615 38.291 36.2492 38.744 36.2492 39.2164C36.2492 39.6888 36.0615 40.1419 35.7275 40.4759C35.3935 40.8099 34.9404 40.9976 34.468 40.9976C33.9956 40.9976 33.5426 40.8099 33.2086 40.4759C32.8745 40.1419 32.6869 39.6888 32.6869 39.2164Z" fill="#424853"/>
<path d="M41.0298 26.2924L37.2549 21L23.375 32.0882L22.6056 32.0799V32.0918H22V46.341H46.9361V32.0918H45.7938L43.521 25.4434L41.0298 26.2924ZM43.2847 32.0918H31.3772L40.2461 29.0686L42.0534 28.4903L43.2847 32.0918ZM38.6834 27.0927L29.5283 30.2133L36.7788 24.421L38.6834 27.0927ZM24.3749 41.7919V36.6385C24.8758 36.461 25.3309 36.1739 25.7068 35.7982C26.0827 35.4224 26.3701 34.9675 26.5479 34.4667H42.3882C42.5659 34.9677 42.8532 35.4228 43.2292 35.7987C43.6051 36.1747 44.0602 36.462 44.5612 36.6397V41.7931C44.0602 41.9709 43.6051 42.2582 43.2292 42.6341C42.8532 43.01 42.5659 43.4651 42.3882 43.9661H26.5502C26.3723 43.4647 26.0847 43.0092 25.7084 42.6331C25.332 42.2569 24.8764 41.9696 24.3749 41.7919Z" fill="#424853"/>
</svg>
