<svg width="68" height="68" viewBox="0 0 68 68" fill="none" xmlns="http://www.w3.org/2000/svg">
<circle cx="34" cy="34" r="34" fill="#424853" fill-opacity="0.2"/>
<path d="M23.1667 22.0833C23.1667 21.796 23.0525 21.5205 22.8494 21.3173C22.6462 21.1141 22.3707 21 22.0833 21C21.796 21 21.5205 21.1141 21.3173 21.3173C21.1141 21.5205 21 21.796 21 22.0833V41.5833C21 43.0199 21.5707 44.3977 22.5865 45.4135C23.6023 46.4293 24.9801 47 26.4167 47H45.9167C46.204 47 46.4795 46.8859 46.6827 46.6827C46.8859 46.4795 47 46.204 47 45.9167C47 45.6293 46.8859 45.3538 46.6827 45.1506C46.4795 44.9475 46.204 44.8333 45.9167 44.8333H26.4167C25.5547 44.8333 24.7281 44.4909 24.1186 43.8814C23.5091 43.2719 23.1667 42.4453 23.1667 41.5833V22.0833ZM38.3333 26.4167C38.3333 26.704 38.4475 26.9795 38.6506 27.1827C38.8538 27.3859 39.1293 27.5 39.4167 27.5H43.3015L36.1667 34.6348L32.6003 31.0663C32.4997 30.9654 32.3802 30.8854 32.2485 30.8308C32.1169 30.7762 31.9758 30.7481 31.8333 30.7481C31.6908 30.7481 31.5497 30.7762 31.4181 30.8308C31.2865 30.8854 31.167 30.9654 31.0663 31.0663L25.6497 36.483C25.5489 36.5837 25.469 36.7033 25.4145 36.8349C25.36 36.9665 25.332 37.1076 25.332 37.25C25.332 37.3924 25.36 37.5335 25.4145 37.6651C25.469 37.7967 25.5489 37.9163 25.6497 38.017C25.7504 38.1177 25.87 38.1976 26.0016 38.2521C26.1332 38.3066 26.2742 38.3347 26.4167 38.3347C26.5591 38.3347 26.7002 38.3066 26.8318 38.2521C26.9634 38.1976 27.0829 38.1177 27.1837 38.017L31.8333 33.3652L35.3997 36.9337C35.5003 37.0346 35.6198 37.1146 35.7515 37.1692C35.8831 37.2238 36.0242 37.2519 36.1667 37.2519C36.3092 37.2519 36.4503 37.2238 36.5819 37.1692C36.7135 37.1146 36.833 37.0346 36.9337 36.9337L44.8333 29.0318V33.0835C44.8333 33.3708 44.9475 33.6464 45.1506 33.8495C45.3538 34.0527 45.6293 34.1668 45.9167 34.1668C46.204 34.1668 46.4795 34.0527 46.6827 33.8495C46.8859 33.6464 47 33.3708 47 33.0835V26.4167C47 26.1293 46.8859 25.8538 46.6827 25.6506C46.4795 25.4475 46.204 25.3333 45.9167 25.3333H39.4167C39.1293 25.3333 38.8538 25.4475 38.6506 25.6506C38.4475 25.8538 38.3333 26.1293 38.3333 26.4167Z" fill="#424853"/>
</svg>
