<svg width="7" height="8" viewBox="0 0 7 8" fill="none" xmlns="http://www.w3.org/2000/svg">
<path fill-rule="evenodd" clip-rule="evenodd" d="M0.4 7.2H6C6.10609 7.2 6.20783 7.24214 6.28284 7.31716C6.35786 7.39217 6.4 7.49391 6.4 7.6C6.4 7.70609 6.35786 7.80783 6.28284 7.88284C6.20783 7.95786 6.10609 8 6 8H0.4C0.293913 8 0.192172 7.95786 0.117157 7.88284C0.0421428 7.80783 0 7.70609 0 7.6C0 7.49391 0.0421428 7.39217 0.117157 7.31716C0.192172 7.24214 0.293913 7.2 0.4 7.2ZM0 5.2L4 1.2L5.2 2.4L1.2 6.4H0V5.2ZM4.4 0.8L5.2 0L6.4 1.2L5.5996 2.0004L4.4 0.8Z" fill="white"/>
</svg>
