<svg width="68" height="68" viewBox="0 0 68 68" fill="none" xmlns="http://www.w3.org/2000/svg">
<circle cx="34" cy="34" r="34" fill="#00A18A" fill-opacity="0.2"/>
<path d="M47.3627 20.0089L47.5192 20L47.7111 20.0118L47.844 20.0354L48.0256 20.0871L48.1836 20.155L48.3312 20.2392L48.4641 20.3381L48.5851 20.4488L48.6619 20.5359L48.783 20.7072L48.8597 20.8489C48.9291 20.9966 48.9734 21.1531 48.9926 21.3155L49 21.4719C49 21.5827 48.9882 21.6919 48.9646 21.7968L48.9129 21.9783L39.2692 48.6668C39.0864 49.0648 38.7932 49.402 38.4245 49.6383C38.0557 49.8746 37.6269 50.0001 37.189 50C36.7945 50.0012 36.4065 49.9003 36.0626 49.707C35.7188 49.5138 35.4308 49.2347 35.2269 48.8971L35.1309 48.7096L30.1821 38.815L20.3346 33.8898C19.9703 33.7231 19.656 33.4637 19.4234 33.1375C19.1907 32.8113 19.0478 32.4298 19.0089 32.031L19 31.811C19 30.9842 19.4444 30.2283 20.2416 29.7884L20.4483 29.685L47.0482 20.0797L47.2047 20.0354L47.3627 20.0089Z" fill="#00A18A"/>
</svg>
