<svg width="16" height="19" viewBox="0 0 16 19" fill="none" xmlns="http://www.w3.org/2000/svg">
<path d="M14.2222 13.5714V8.86667C13.7778 8.95714 13.3333 9.04762 12.8889 9.04762H12.4444V14.4762H3.55556V8.14286C3.55556 5.60952 5.51111 3.61905 8 3.61905C8.08889 2.44286 8.62222 1.44762 9.33333 0.633333C9.06667 0.271429 8.53333 0 8 0C7.02222 0 6.22222 0.814286 6.22222 1.80952V2.08095C3.55556 2.89524 1.77778 5.3381 1.77778 8.14286V13.5714L0 15.381V16.2857H16V15.381L14.2222 13.5714ZM6.22222 17.1905C6.22222 18.1857 7.02222 19 8 19C8.97778 19 9.77778 18.1857 9.77778 17.1905H6.22222ZM16 4.07143C16 5.79048 14.5778 7.2381 12.8889 7.2381C11.2 7.2381 9.77778 5.79048 9.77778 4.07143C9.77778 2.35238 11.2 0.904762 12.8889 0.904762C14.5778 0.904762 16 2.35238 16 4.07143Z" fill="white"/>
</svg>
