<svg width="40" height="40" viewBox="0 0 40 40" fill="none" xmlns="http://www.w3.org/2000/svg">
<circle cx="20" cy="20" r="20" fill="#D9D9D9"/>
<path d="M26.2222 23.5714V18.8667C25.7778 18.9571 25.3333 19.0476 24.8889 19.0476H24.4444V24.4762H15.5556V18.1429C15.5556 15.6095 17.5111 13.619 20 13.619C20.0889 12.4429 20.6222 11.4476 21.3333 10.6333C21.0667 10.2714 20.5333 10 20 10C19.0222 10 18.2222 10.8143 18.2222 11.8095V12.081C15.5556 12.8952 13.7778 15.3381 13.7778 18.1429V23.5714L12 25.381V26.2857H28V25.381L26.2222 23.5714ZM18.2222 27.1905C18.2222 28.1857 19.0222 29 20 29C20.9778 29 21.7778 28.1857 21.7778 27.1905H18.2222ZM28 14.0714C28 15.7905 26.5778 17.2381 24.8889 17.2381C23.2 17.2381 21.7778 15.7905 21.7778 14.0714C21.7778 12.3524 23.2 10.9048 24.8889 10.9048C26.5778 10.9048 28 12.3524 28 14.0714Z" fill="#634099"/>
</svg>
