<svg width="68" height="68" viewBox="0 0 68 68" fill="none" xmlns="http://www.w3.org/2000/svg">
<circle cx="34" cy="34" r="34" fill="#F5F5FF"/>
<path d="M31.6 29.2727H34V36.3636H31.6V29.2727ZM32.8 43.4545C28.156 43.4545 24.4 39.7555 24.4 35.1818C24.4 30.6082 28.156 26.9091 32.8 26.9091C36.628 26.9091 39.856 29.4382 40.864 32.8773C41.2 32.8182 41.488 32.8182 41.8 32.8182C42.328 32.8182 42.856 32.8773 43.36 32.9718C43 31.3291 42.268 29.8164 41.236 28.5518L42.94 26.8736C42.4 26.2709 41.86 25.7273 41.248 25.2073L39.544 26.9091C37.684 25.42 35.344 24.5455 32.8 24.5455C29.9357 24.5455 27.1886 25.6661 25.1632 27.6608C23.1379 29.6555 22 32.3609 22 35.1818C22 38.0028 23.1379 40.7082 25.1632 42.7029C27.1886 44.6976 29.9357 45.8182 32.8 45.8182C33.844 45.8182 34.84 45.6645 35.8 45.4045C35.26 44.7664 34.84 44.0455 34.54 43.2773C34 43.3955 33.4 43.4545 32.8 43.4545ZM36.4 21H29.2V23.3636H36.4V21ZM41.2 35.7727V34L38.5 36.6591L41.2 39.3182V37.5455C41.9956 37.5455 42.7587 37.8567 43.3213 38.4108C43.8839 38.9649 44.2 39.7164 44.2 40.5C44.2 40.9727 44.092 41.4218 43.888 41.8236L45.196 43.1118C45.7 42.3673 46 41.4691 46 40.5C46 37.8882 43.852 35.7727 41.2 35.7727ZM41.2 43.4545C40.4044 43.4545 39.6413 43.1433 39.0787 42.5892C38.5161 42.0351 38.2 41.2836 38.2 40.5C38.2 40.0273 38.308 39.5782 38.512 39.1764L37.204 37.8882C36.7 38.6327 36.4 39.5309 36.4 40.5C36.4 43.1118 38.548 45.2273 41.2 45.2273V47L43.9 44.3409L41.2 41.6818V43.4545Z" fill="#634099"/>
</svg>
