<svg width="26" height="26" viewBox="0 0 26 26" fill="none" xmlns="http://www.w3.org/2000/svg">
<circle cx="13" cy="13" r="13" fill="#F5F5FF"/>
<path d="M10.2677 7.26414C10.0963 7.43332 10 7.66274 10 7.90196C10 8.14118 10.0963 8.37061 10.2677 8.53978L14.7932 13.0054L10.2677 17.4711C10.1011 17.6413 10.009 17.8691 10.0111 18.1057C10.0132 18.3422 10.1093 18.5685 10.2788 18.7358C10.4483 18.903 10.6776 18.9979 10.9173 19C11.1571 19.002 11.388 18.9111 11.5604 18.7468L16.7323 13.6433C16.9037 13.4741 17 13.2447 17 13.0054C17 12.7662 16.9037 12.5368 16.7323 12.3676L11.5604 7.26414C11.389 7.09501 11.1565 7 10.9141 7C10.6716 7 10.4391 7.09501 10.2677 7.26414Z" fill="#424853"/>
</svg>
