<svg width="11" height="21" viewBox="0 0 11 21" fill="none" xmlns="http://www.w3.org/2000/svg">
<path d="M0.282432 1.68725C0.192214 1.59178 0.121684 1.47947 0.0748688 1.35674C0.0280533 1.23401 0.00586875 1.10327 0.00958309 0.971965C0.0132974 0.840663 0.0428375 0.711378 0.0965162 0.591492C0.150195 0.471606 0.226961 0.363467 0.322432 0.273249C0.417903 0.183031 0.53021 0.112501 0.652938 0.0656852C0.775667 0.0188697 0.906414 -0.00331434 1.03772 0.000400002C1.16902 0.00411435 1.2983 0.0336542 1.41819 0.0873329C1.53808 0.141012 1.64621 0.217778 1.73643 0.313249L10.2364 9.31325C10.412 9.49892 10.5098 9.74474 10.5098 10.0002C10.5098 10.2558 10.412 10.5016 10.2364 10.6872L1.73643 19.6882C1.64681 19.7858 1.53869 19.8646 1.41837 19.92C1.29804 19.9754 1.1679 20.0064 1.03551 20.0111C0.903112 20.0158 0.771103 19.9942 0.647146 19.9474C0.523189 19.9007 0.409756 19.8298 0.313435 19.7388C0.217115 19.6479 0.139826 19.5387 0.0860601 19.4176C0.0322939 19.2965 0.00312155 19.166 0.000237084 19.0335C-0.00264739 18.9011 0.0208133 18.7694 0.0692574 18.6461C0.117701 18.5228 0.190163 18.4103 0.282432 18.3153L8.13443 10.0002L0.282432 1.68725Z" fill="#2E2D2C"/>
</svg>
