<svg width="18" height="19" viewBox="0 0 18 19" fill="none" xmlns="http://www.w3.org/2000/svg">
<path d="M15.9421 9.5C15.9421 9.2815 15.9328 9.0725 15.9143 8.854L17.636 7.5145C18.0062 7.2295 18.108 6.6975 17.8766 6.2795L16.1457 3.211C16.0347 3.00978 15.8552 2.85774 15.6417 2.78409C15.4281 2.71044 15.1956 2.72038 14.9887 2.812L12.9986 3.6765C12.6562 3.4295 12.2952 3.211 11.9157 3.0305L11.6472 0.836C11.5917 0.361 11.1937 0 10.7309 0H7.27836C6.8063 0 6.40829 0.361 6.35275 0.836L6.08432 3.0305C5.70482 3.211 5.34383 3.4295 5.00136 3.6765L3.01129 2.812C2.58551 2.622 2.08568 2.793 1.85428 3.211L0.123382 6.289C-0.108021 6.707 -0.00620351 7.2295 0.364041 7.524L2.08568 8.8635C2.04731 9.29009 2.04731 9.71941 2.08568 10.146L0.364041 11.4855C-0.00620351 11.7705 -0.108021 12.3025 0.123382 12.7205L1.85428 15.789C2.08568 16.207 2.58551 16.378 3.01129 16.188L5.00136 15.3235C5.34383 15.5705 5.70482 15.789 6.08432 15.9695L6.35275 18.164C6.40829 18.639 6.8063 19 7.26911 19H10.7216C11.1844 19 11.5825 18.639 11.638 18.164L11.9064 15.9695C12.2859 15.789 12.6469 15.5705 12.9894 15.3235L14.9795 16.188C15.4052 16.378 15.9051 16.207 16.1365 15.789L17.8674 12.7205C18.0988 12.3025 17.9969 11.78 17.6267 11.4855L15.9051 10.146C15.9328 9.9275 15.9421 9.7185 15.9421 9.5ZM9.03702 12.825C7.25059 12.825 5.79738 11.3335 5.79738 9.5C5.79738 7.6665 7.25059 6.175 9.03702 6.175C10.8235 6.175 12.2767 7.6665 12.2767 9.5C12.2767 11.3335 10.8235 12.825 9.03702 12.825Z" fill="white"/>
</svg>
