<svg width="40" height="40" viewBox="0 0 40 40" fill="none" xmlns="http://www.w3.org/2000/svg">
<circle cx="20" cy="20" r="20" fill="#00A18A"/>
<path d="M20.9479 26.5489L18.5943 21.6842L13.2452 18.9211C13.172 18.8864 13.11 18.8308 13.0666 18.7608C13.0231 18.6909 13 18.6095 13 18.5263C13 18.4432 13.0231 18.3618 13.0666 18.2918C13.11 18.2218 13.172 18.1662 13.2452 18.1316L27 13L25.0514 18.5761M27 22.4737H25.0896C24.7856 22.4737 24.4941 22.5984 24.2791 22.8205C24.0641 23.0426 23.9434 23.3438 23.9434 23.6579C23.9434 23.972 24.0641 24.2732 24.2791 24.4953C24.4941 24.7173 24.7856 24.8421 25.0896 24.8421H25.8538C26.1578 24.8421 26.4493 24.9669 26.6643 25.189C26.8792 25.411 27 25.7122 27 26.0263C27 26.3404 26.8792 26.6416 26.6643 26.8637C26.4493 27.0858 26.1578 27.2105 25.8538 27.2105H23.9434M25.4717 27.2105V28M25.4717 21.6842V22.4737" stroke="white" stroke-width="1.5" stroke-linecap="round" stroke-linejoin="round"/>
</svg>
