<svg width="40" height="40" viewBox="0 0 40 40" fill="none" xmlns="http://www.w3.org/2000/svg">
<circle cx="20" cy="20" r="20" fill="#634099"/>
<path d="M15.2019 16.2166C16.2509 15.1641 17.6326 14.5079 19.1113 14.3601C20.5901 14.2123 22.0743 14.582 23.3109 15.4061C24.5476 16.2302 25.4601 17.4577 25.893 18.8793C26.3259 20.301 26.2522 21.8288 25.6847 23.2022C25.1171 24.5757 24.0907 25.7097 22.7805 26.4111C21.4704 27.1124 19.9575 27.3376 18.4998 27.0483C17.0422 26.759 15.73 25.973 14.787 24.8245C13.844 23.6759 13.3286 22.2358 13.3286 20.7497C13.3286 20.5735 13.2586 20.4046 13.134 20.28C13.0094 20.1554 12.8405 20.0854 12.6643 20.0854C12.4881 20.0854 12.3191 20.1554 12.1946 20.28C12.07 20.4046 12 20.5735 12 20.7497C11.9999 22.5433 12.622 24.2814 13.7601 25.6677C14.8982 27.0539 16.4819 28.0025 18.2411 28.3517C20.0004 28.7009 21.8264 28.4291 23.4076 27.5826C24.9889 26.7361 26.2276 25.3673 26.9126 23.7097C27.5976 22.052 27.6864 20.2081 27.1639 18.4923C26.6414 16.7765 25.5399 15.295 24.0473 14.3005C22.5547 13.306 20.7633 12.86 18.9786 13.0385C17.1939 13.217 15.5264 14.009 14.2603 15.2795C14.238 15.3017 14.2173 15.3253 14.1983 15.3504L13.085 14.2362C13.0255 14.1765 12.9501 14.135 12.8678 14.1167C12.7856 14.0984 12.6998 14.1039 12.6205 14.1326C12.5413 14.1614 12.4719 14.2121 12.4205 14.279C12.3691 14.3458 12.3378 14.4259 12.3304 14.5098L12.0177 17.9544C12.0119 18.019 12.0203 18.0841 12.0424 18.1451C12.0645 18.2061 12.0997 18.2615 12.1456 18.3074C12.1915 18.3533 12.2469 18.3885 12.3079 18.4106C12.3689 18.4327 12.434 18.4412 12.4987 18.4353L15.9441 18.1218C16.0277 18.1139 16.1074 18.0824 16.1738 18.0309C16.2402 17.9795 16.2906 17.9102 16.3191 17.8312C16.3476 17.7521 16.3531 17.6666 16.3348 17.5846C16.3166 17.5026 16.2753 17.4275 16.216 17.368L15.1283 16.2804C15.1544 16.2609 15.1789 16.2396 15.2019 16.2166Z" fill="white"/>
<path d="M20.4143 16.321C20.4143 16.1448 20.3443 15.9759 20.2197 15.8513C20.0952 15.7267 19.9262 15.6567 19.75 15.6567C19.5738 15.6567 19.4049 15.7267 19.2803 15.8513C19.1557 15.9759 19.0857 16.1448 19.0857 16.321V20.7496C19.0857 20.8622 19.1143 20.973 19.1688 21.0715C19.2233 21.1701 19.302 21.2531 19.3975 21.3129L22.0546 22.9736C22.204 23.0671 22.3845 23.0974 22.5562 23.0579C22.6413 23.0383 22.7216 23.0022 22.7927 22.9516C22.8638 22.9009 22.9242 22.8368 22.9705 22.7628C23.0168 22.6888 23.048 22.6065 23.0625 22.5204C23.0769 22.4344 23.0743 22.3463 23.0547 22.2613C23.0352 22.1762 22.999 22.0959 22.9484 22.0248C22.8978 21.9537 22.8336 21.8933 22.7597 21.847L20.4143 20.3811V16.321Z" fill="white"/>
</svg>
