<?xml version="1.0" encoding="utf-8"?>
<!-- Generator: Adobe Illustrator 25.2.3, SVG Export Plug-In . SVG Version: 6.00 Build 0)  -->
<svg version="1.1" id="Layer_1" xmlns="http://www.w3.org/2000/svg" xmlns:xlink="http://www.w3.org/1999/xlink" x="0px" y="0px"
	 viewBox="0 0 500 145" style="enable-background:new 0 0 500 145;" xml:space="preserve">
<style type="text/css">
	.st0{fill:#634099;}
	.st1{fill:#00A18A;}
	.st2{fill:#2E2D2C;}
	
		.st3{fill:none;stroke:#9C9B9B;stroke-width:3;stroke-linecap:round;stroke-linejoin:round;stroke-miterlimit:10;stroke-dasharray:0.1,8;}
	
		.st4{fill:none;stroke:#9C9B9B;stroke-width:2.5639;stroke-linecap:round;stroke-linejoin:round;stroke-miterlimit:10;stroke-dasharray:0.0855,6.8371;}
	.st5{fill:#06836D;}
	.st6{fill:none;stroke:#634099;stroke-miterlimit:10;}
	.st7{fill:none;stroke:#03556E;stroke-width:0.75;stroke-miterlimit:10;}
</style>
<g>
	<path class="st0" d="M121.89,101.28c2.72,1.68,8.01,3.55,12.41,3.55c5.41,0,7.83-2.27,7.83-5.46c0-3.29-2.01-4.97-7.99-7.09
		c-9.52-3.26-13.49-8.44-13.45-14.21c0-8.56,7.11-15.22,18.46-15.22c5.36,0,10.05,1.34,12.9,2.91l-2.44,8.64
		c-2.05-1.16-5.98-2.8-10.29-2.8c-4.38,0-6.81,2.16-6.81,5.15c0,3.09,2.35,4.57,8.49,6.81c8.85,3.13,12.94,7.65,12.98,14.82
		c0,8.87-6.91,15.27-19.76,15.27c-5.89,0-11.24-1.41-14.82-3.41L121.89,101.28z"/>
	<path class="st0" d="M176.44,85.28h0.2c1.16-1.9,2.56-3.97,3.84-5.71l11.87-15.62h14.78l-18.04,19.86l20.58,28.79h-15.09
		l-13.98-21.5l-4.14,4.93v16.57h-12.3V41.65h12.3V85.28z"/>
	<path class="st0" d="M229.34,50.33c0.01,3.67-2.65,6.64-7.01,6.64c-4.08,0-6.75-2.96-6.74-6.64c-0.01-3.75,2.75-6.65,6.89-6.65
		C226.66,43.68,229.3,46.55,229.34,50.33z M216.31,112.6V63.95h12.31v48.65H216.31z"/>
	<path class="st0" d="M241.88,80.07c0-6.31-0.18-11.55-0.4-16.12h10.8l0.61,7.47h0.2c3.58-5.49,9.24-8.57,16.68-8.57
		c11.15,0,20.41,9.55,20.41,24.74c0,17.65-11.04,26.11-22.12,26.11c-6.12,0-11.19-2.56-13.68-6.49h-0.2v25.18h-12.3V80.07z
		 M254.18,92.23c0,1.19,0.11,2.31,0.34,3.35c1.25,5,5.58,8.61,10.8,8.61c7.8,0,12.38-6.48,12.38-16.03c0-8.62-4.19-15.62-12.1-15.62
		c-5.06,0-9.73,3.7-10.98,9.11c-0.25,0.99-0.44,2.07-0.44,3.1V92.23z"/>
</g>
<g>
	<path class="st0" d="M395.58,110.85c-2.31,1.13-7.36,2.8-13.86,2.8c-14.57,0-24.12-9.92-24.12-24.69
		c0-14.9,10.16-25.77,25.96-25.77c5.18,0,9.85,1.31,12.22,2.57l-1.96,6.75c-2.15-1.15-5.44-2.32-10.28-2.32
		c-11.03,0-17.07,8.26-17.05,18.3c0,11.2,7.2,18.08,16.83,18.08c4.92,0,8.28-1.25,10.76-2.32L395.58,110.85z"/>
	<path class="st0" d="M432.78,112.6l-0.77-6.1h-0.26c-2.65,3.77-7.87,7.2-14.79,7.2c-9.76,0-14.76-6.93-14.76-13.87
		c0-11.71,10.37-18.14,29.04-18V80.8c0-3.93-1.1-11.2-11-11.15c-4.5,0-9.2,1.34-12.59,3.6l-2-5.84c4-2.58,9.85-4.24,15.95-4.24
		c14.77,0,18.38,10.1,18.38,19.78v18.08c0,4.13,0.19,8.25,0.73,11.56H432.78z M431.41,87.92c-9.51-0.2-20.4,1.51-20.4,10.85
		c0,5.77,3.8,8.41,8.21,8.41c6.36,0,10.38-4.01,11.78-8.09c0.3-0.93,0.42-1.93,0.42-2.77V87.92z"/>
	<path class="st0" d="M454.15,41.65h8.74v70.95h-8.74V41.65z"/>
	<path class="st0" d="M477.73,41.65h8.74v70.95h-8.74V41.65z"/>
</g>
<g>
	<g>
		<g>
			<polygon class="st1" points="346.33,50.7 346.33,113.69 301.83,50.7 314.79,50.7 335.96,80.57 335.96,50.7 			"/>
		</g>
	</g>
	<g>
		<g>
			<polygon class="st1" points="340.8,113.61 327.84,113.61 306.67,83.73 306.67,113.61 296.3,113.61 296.3,50.61 			"/>
		</g>
	</g>
</g>
<g>
	<g>
		<g>
			<path class="st2" d="M86.44,50.29c-0.27-0.01-0.48-0.25-0.48-0.52v-0.18c-0.45-0.17-0.8-0.57-0.88-1.08
				c-0.11-0.64,0.24-1.21,0.86-1.43c0.21-0.07,0.46-0.17,0.64-0.27c0.14-0.08,0.15-0.29,0.01-0.37l0,0
				c-0.27-0.08-0.44,0.05-0.46,0.07c0.01-0.01-0.38,0.29-0.66-0.04c-0.34-0.4-0.01-0.7-0.01-0.7c0.1-0.09,0.28-0.21,0.51-0.28v-0.12
				c0-0.27,0.21-0.51,0.48-0.52c0.28-0.01,0.51,0.22,0.51,0.5v0.17c0.38,0.15,0.66,0.49,0.74,0.91c0.08,0.42-0.06,0.83-0.37,1.07
				c-0.28,0.22-0.68,0.38-1.06,0.51c-0.16,0.06-0.23,0.17-0.21,0.32c0.02,0.13,0.13,0.34,0.4,0.34c0.29,0,0.36-0.01,0.57-0.14
				c0.23-0.15,0.54-0.1,0.69,0.12c0.16,0.23,0.1,0.55-0.13,0.7c-0.24,0.16-0.43,0.24-0.63,0.28v0.15
				C86.95,50.07,86.72,50.3,86.44,50.29L86.44,50.29z"/>
			<path class="st2" d="M75.37,33.21h0.28l8.43,8.1c0,0.64,0,1.33,0.02,1.98c-1.51,0.83-2.53,2.43-2.53,4.27
				c0,0.6,0.11,1.18,0.32,1.74c0.1,0.26,0.39,0.39,0.64,0.29c0.26-0.1,0.39-0.39,0.29-0.64c-0.17-0.44-0.25-0.91-0.25-1.38
				c0-2.14,1.74-3.88,3.88-3.88c2.14,0,3.88,1.74,3.88,3.88s-1.74,3.88-3.88,3.88c-0.81,0-1.58-0.25-2.24-0.71
				c-0.22-0.16-0.53-0.11-0.69,0.12c-0.16,0.22-0.11,0.53,0.12,0.69c0.83,0.59,1.8,0.9,2.82,0.9c2.69,0,4.87-2.19,4.87-4.87
				c0-1.84-1.03-3.45-2.54-4.28c0-0.66,0.02-1.32-0.01-1.97c0.37-0.36,8.47-8.11,8.47-8.11h0.28c1.92,0,1.92-2.98,0-2.98h-0.63h-1.1
				h-1.76h-2.04h-0.5h-2.04h-1.76h-1.1h-0.7h-10.5C73.45,30.23,73.45,33.21,75.37,33.21z M75.37,31.23H97.5c0.64,0,0.64,0.99,0,0.99
				h-3.77c-0.27,0-0.5,0.22-0.5,0.5c0,0.27,0.22,0.5,0.5,0.5c0,0,1.38,0.03,2.03,0.02c0,0-7.36,7.04-7.75,7.42
				c-0.29,0.28-0.25,0.57-0.25,0.91v1.33c-0.87-0.25-1.82-0.25-2.69,0c-0.01-0.59-0.01-1.2-0.01-1.79c0-0.14-0.06-0.27-0.15-0.36
				c-1.11-1.06-6.29-6.09-7.81-7.52c4.58,0.02,13.97-0.01,13.97-0.01c0.27,0,0.5-0.22,0.5-0.5c0-0.27-0.22-0.5-0.5-0.5H75.37
				C74.73,32.22,74.73,31.23,75.37,31.23z"/>
		</g>
		<g>
			<path class="st2" d="M93.82,24.95H93.8c-0.46,0-0.83-0.37-0.84-0.84V23.6c0-0.46,0.37-0.83,0.84-0.84h0.01
				c0.46,0,0.83,0.37,0.84,0.84v0.52C94.65,24.58,94.28,24.95,93.82,24.95z"/>
			<path class="st2" d="M79.2,24.95h-0.01c-0.46,0-0.83-0.37-0.84-0.84V23.6c0-0.46,0.37-0.83,0.84-0.84h0.01
				c0.46,0,0.83,0.37,0.84,0.84v0.52C80.04,24.58,79.66,24.95,79.2,24.95z"/>
			<path class="st2" d="M82.81,22.74H82.8c-0.38,0-0.7-0.31-0.7-0.7v-0.46c0-0.38,0.31-0.7,0.7-0.7h0.01c0.38,0,0.7,0.31,0.7,0.7
				v0.46C83.51,22.43,83.2,22.74,82.81,22.74z"/>
			<path class="st2" d="M90.12,22.74H90.1c-0.38,0-0.7-0.31-0.7-0.7v-0.46c0-0.38,0.31-0.7,0.7-0.7h0.01c0.38,0,0.7,0.31,0.7,0.7
				v0.46C90.81,22.43,90.5,22.74,90.12,22.74z"/>
			<path class="st2" d="M86.51,24.95H86.5c-0.46,0-0.83-0.37-0.84-0.84V23.6c0-0.46,0.37-0.83,0.84-0.84h0.01
				c0.46,0,0.83,0.37,0.84,0.84v0.52C87.34,24.58,86.97,24.95,86.51,24.95z"/>
			<path class="st2" d="M91.65,22.05v-0.46c0-0.85-0.69-1.53-1.53-1.53H90.1c-0.85,0-1.53,0.69-1.53,1.53v0.46
				c0,0.85,0.69,1.53,1.53,1.53h0.01C90.96,23.58,91.65,22.89,91.65,22.05z M90.81,22.05c0,0.38-0.31,0.7-0.7,0.7H90.1
				c-0.38,0-0.7-0.31-0.7-0.7v-0.46c0-0.38,0.31-0.7,0.7-0.7h0.01c0.38,0,0.7,0.31,0.7,0.7V22.05z"/>
			<path class="st2" d="M84.34,22.05v-0.46c0-0.85-0.69-1.53-1.53-1.53H82.8c-0.85,0-1.53,0.69-1.53,1.53v0.46
				c0,0.85,0.69,1.53,1.53,1.53h0.01C83.66,23.58,84.34,22.89,84.34,22.05z M83.51,22.05c0,0.38-0.31,0.7-0.7,0.7H82.8
				c-0.38,0-0.7-0.31-0.7-0.7v-0.46c0-0.38,0.31-0.7,0.7-0.7h0.01c0.38,0,0.7,0.31,0.7,0.7V22.05z"/>
			<path class="st2" d="M80.87,24.11V23.6c0-0.92-0.75-1.67-1.67-1.67h-0.01c-0.92,0-1.67,0.75-1.67,1.67v0.52
				c0,0.92,0.75,1.67,1.67,1.67h0.01C80.12,25.78,80.87,25.04,80.87,24.11z M80.04,24.11c0,0.46-0.37,0.83-0.84,0.84h-0.01
				c-0.46,0-0.83-0.37-0.84-0.84V23.6c0-0.46,0.37-0.83,0.84-0.84h0.01c0.46,0,0.83,0.37,0.84,0.84V24.11z"/>
			<path class="st2" d="M81.51,27.92c0-0.01,0-0.03,0-0.04c0.03-0.25-0.06-0.5-0.23-0.69c-0.17-0.19-0.41-0.29-0.66-0.29h-0.12
				l-0.34,0.58c-0.06,0.1-0.15,0.17-0.26,0.19c-0.11,0.03-0.22,0.01-0.32-0.05l-0.42-0.25l-0.46,0.26
				c-0.19,0.11-0.44,0.05-0.56-0.14l-0.38-0.6h-0.09c-0.25,0-0.49,0.11-0.66,0.29c-0.17,0.19-0.25,0.44-0.23,0.69l0,0
				c0,0.01,0,0.03,0,0.04v2.33h-0.84v-2.31c-0.04-0.48,0.12-0.96,0.45-1.32c0.33-0.36,0.79-0.56,1.27-0.56l0,0h0.32
				c0.14,0,0.28,0.07,0.35,0.19l0.29,0.46l0.33-0.18c0.13-0.07,0.29-0.07,0.42,0.01l0.27,0.16l0.25-0.43
				c0.07-0.13,0.21-0.21,0.36-0.21h0.36c0.48,0,0.95,0.2,1.27,0.56c0.33,0.36,0.49,0.84,0.45,1.32v2.31h-0.84V27.92z"/>
			<path class="st2" d="M88.18,24.11V23.6c0-0.92-0.75-1.67-1.67-1.67H86.5c-0.92,0-1.67,0.75-1.67,1.67v0.52
				c0,0.92,0.75,1.67,1.67,1.67h0.01C87.43,25.78,88.18,25.04,88.18,24.11z M87.34,24.11c0,0.46-0.37,0.83-0.84,0.84H86.5
				c-0.46,0-0.83-0.37-0.84-0.84V23.6c0-0.46,0.37-0.83,0.84-0.84h0.01c0.46,0,0.83,0.37,0.84,0.84V24.11z"/>
			<path class="st2" d="M83.71,26.62c0.33-0.36,0.79-0.56,1.27-0.56h0.32c0.14,0,0.28,0.07,0.35,0.19l0.29,0.46l0.33-0.18
				c0.13-0.07,0.29-0.07,0.42,0.01l0.27,0.16l0.25-0.43c0.07-0.13,0.21-0.21,0.36-0.21h0.36c0.48,0,0.95,0.2,1.27,0.56
				c0.33,0.36,0.49,0.84,0.45,1.32v2.31h-0.84v-2.33c0-0.01,0-0.03,0-0.04c0.03-0.25-0.06-0.5-0.23-0.69
				c-0.17-0.19-0.41-0.29-0.66-0.29h-0.12l-0.34,0.58c-0.06,0.1-0.15,0.17-0.26,0.19c-0.11,0.03-0.22,0.01-0.32-0.05l-0.42-0.25
				l-0.46,0.26c-0.19,0.11-0.44,0.05-0.56-0.14l-0.38-0.6h-0.09c-0.25,0-0.49,0.11-0.66,0.29c-0.17,0.19-0.25,0.44-0.23,0.69
				c0,0.01,0,0.03,0,0.04v2.33h-0.84v-2.31C83.22,27.45,83.38,26.98,83.71,26.62z"/>
			<path class="st2" d="M95.49,24.11V23.6c0-0.92-0.75-1.67-1.67-1.67H93.8c-0.92,0-1.67,0.75-1.67,1.67v0.52
				c0,0.92,0.75,1.67,1.67,1.67h0.01C94.74,25.78,95.49,25.04,95.49,24.11z M94.65,24.11c0,0.46-0.37,0.83-0.84,0.84H93.8
				c-0.46,0-0.83-0.37-0.84-0.84V23.6c0-0.46,0.37-0.83,0.84-0.84h0.01c0.46,0,0.83,0.37,0.84,0.84V24.11z"/>
			<path class="st2" d="M91.02,26.62c0.33-0.36,0.79-0.56,1.27-0.56h0.32c0.14,0,0.28,0.07,0.35,0.19l0.29,0.46l0.33-0.18
				c0.13-0.07,0.29-0.07,0.42,0.01l0.27,0.16l0.25-0.43c0.07-0.13,0.21-0.21,0.36-0.21h0.36c0.48,0,0.95,0.2,1.27,0.56
				c0.33,0.36,0.49,0.84,0.45,1.32v2.31h-0.84v-2.33c0-0.01,0-0.03,0-0.04c0.03-0.25-0.06-0.5-0.23-0.69
				c-0.17-0.19-0.41-0.29-0.66-0.29h-0.12l-0.34,0.58c-0.06,0.1-0.15,0.17-0.26,0.19c-0.11,0.03-0.22,0.01-0.32-0.05l-0.42-0.25
				l-0.46,0.26c-0.19,0.11-0.44,0.05-0.56-0.14l-0.38-0.6h-0.09c-0.25,0-0.49,0.11-0.66,0.29c-0.17,0.19-0.25,0.44-0.23,0.69
				c0,0.01,0,0.03,0,0.04v2.33h-0.83v-2.31C90.53,27.45,90.69,26.98,91.02,26.62z"/>
		</g>
	</g>
</g>
<path class="st3" d="M72.39,55.85c-3.72,5.5-5.89,12.13-5.89,19.27"/>
<path class="st4" d="M56.33,110.37c-0.7,0.99-2.83,0.21-5.49-1.23c-7.8-4.22-14.16-0.42-18.87-7.93
	c-1.39-2.21-3.36-14.95-5.84-18.14"/>
<g>
	<g>
		<defs>
			
				<ellipse id="SVGID_1_" transform="matrix(0.7071 -0.7071 0.7071 0.7071 -0.3163 71.7362)" cx="86.44" cy="36.25" rx="22" ry="22"/>
		</defs>
		<clipPath id="SVGID_2_">
			<use xlink:href="#SVGID_1_"  style="overflow:visible;"/>
		</clipPath>
	</g>
	<path class="st2" d="M57.02,35.57c0,0.33,0.11,0.89,0.88,0.95c1.1,0.07,1.84,0.14,1.84,0.14l0.06,0l0.14,0.01l0.03,0.01l0.03,0.01
		l0.07,0.02l0.02,0.01c0.18,0.06,0.38,0.21,0.5,0.52l0,0v0.01l0,0v0v0v0.01l0,0v0l0,0.01v0l0,0.01v0v0.01v0v0l0,0l0.01,0.01v0v0v0
		l0,0.01v0l0,0.01v0l0,0.02v0.01l0,0v0.01v0l0.01,0.06l0,0.02v0.01c0.13,0.9,0.28,2.77,0.41,3.34c0.01,0.1,0.03,0.21,0.03,0.3
		c0,0.45-0.22,0.8-0.6,0.92l-1.84,0.6c0,0-0.7,0.19-0.7,0.86c0,0.11,0.02,0.24,0.06,0.39c0.32,0.99,0.92,2.84,0.92,2.84
		c0,0.01,0.15,0.74,0.88,0.74h0.01c0.12,0,0.26-0.02,0.42-0.07l0.01,0l0.01,0c1.12-0.36,1.61-0.52,1.61-0.52s0.2-0.17,0.47-0.18h0
		c0.21,0,0.46,0.11,0.68,0.49l0.01,0.02l0.01,0.01v0l0,0.01c0.51,0.93,1.42,2.59,1.66,2.91c0,0,0.27,0.42,0.27,0.81
		c0,0.17-0.05,0.34-0.2,0.46c-0.48,0.41-1.58,1.34-1.58,1.34s-0.43,0.31-0.43,0.76c0,0.18,0.07,0.38,0.25,0.59
		c0.65,0.76,2.02,2.37,2.02,2.37h0c0.02,0.03,0.29,0.37,0.74,0.37l0,0c0.21,0,0.46-0.08,0.73-0.31c0.86-0.73,1.41-1.21,1.41-1.21
		s0.09-0.14,0.27-0.21l0.21-0.04h0l0,0c0.16,0,0.37,0.07,0.61,0.25l0.01,0.01c0.73,0.58,2.03,1.63,2.53,1.97
		c0.5,0.34,0.87,0.85,0.6,1.36c-0.27,0.52-0.84,1.65-0.84,1.65s-0.6,0.92,0.32,1.39c0.91,0.47,2.85,1.46,2.85,1.46
		s0.2,0.08,0.45,0.08c0.26,0,0.57-0.08,0.75-0.44c0.35-0.69,0.9-1.75,0.9-1.75s0.12-0.55,0.81-0.55c0.16,0,0.36,0.03,0.59,0.11
		c1.21,0.39,2.43,0.74,2.74,0.78c0.3,0.04,1.15,0.29,1.09,1.05c-0.06,0.77-0.15,1.87-0.15,1.87s-0.17,1.03,1.05,1.13
		c1.22,0.1,2.77,0.22,2.77,0.22l0.1,0c0.27,0,1.02-0.07,1.08-0.83c0.07-0.92,0.15-1.94,0.15-1.94s-0.12-0.84,1.04-0.92
		c1.15-0.09,2.29-0.22,2.68-0.29c0.17-0.03,0.46-0.09,0.76-0.09c0.36,0,0.72,0.1,0.84,0.46c0.22,0.65,0.65,2.01,0.65,2.01
		s0.17,0.66,0.88,0.66c0.14,0,0.3-0.02,0.48-0.08c1.12-0.36,2.85-0.92,2.85-0.92s0.89-0.21,0.49-1.44c-0.4-1.23-0.54-1.66-0.54-1.66
		s-0.26-0.69,0.64-1.14c0.9-0.46,2.32-1.25,2.74-1.54c0.23-0.15,0.49-0.22,0.73-0.22c0.21,0,0.39,0.06,0.5,0.18
		c0.22,0.25,1.33,1.56,1.33,1.56s0.3,0.4,0.78,0.4c0.19,0,0.41-0.07,0.65-0.25c0.85-0.63,2.37-2.02,2.37-2.02s0.64-0.65,0.01-1.39
		c-0.63-0.74-1.24-1.45-1.24-1.45s-0.52-0.45,0.05-1.15c0.57-0.7,1.69-2.05,1.95-2.49c0.2-0.35,0.56-0.7,0.96-0.7
		c0.1,0,0.2,0.02,0.3,0.07c0.5,0.25,1.66,0.85,1.66,0.85s0.35,0.22,0.72,0.22c0.27,0,0.55-0.11,0.75-0.49
		c0.46-0.9,1.38-2.69,1.38-2.69s0.6-0.92-0.46-1.46c-1.05-0.53-1.77-0.9-1.77-0.9s-0.48-0.14-0.3-1.01c0.17-0.88,0.77-2.52,0.9-3.25
		c0.11-0.67,0.61-0.86,1.06-0.86l0.13,0.01c0.47,0.03,1.75,0.13,1.75,0.13l0.13,0.02c0.28,0,0.85-0.11,0.93-1.05
		c0.1-1.23,0.22-2.77,0.22-2.77s0.25-1.11-0.96-1.2c-1.2-0.1-1.76-0.14-1.76-0.14h-0.02c-0.1,0-0.85-0.04-0.93-1.09
		c-0.1-1.13-0.27-2.58-0.37-3.07c0,0-0.1-0.98,0.45-1.16c0.55-0.18,2.08-0.68,2.08-0.68s0.83-0.31,0.5-1.33
		c-0.34-1.02-0.95-2.91-0.95-2.91s-0.25-0.56-0.85-0.56c-0.11,0-0.23,0.02-0.36,0.06c-0.87,0.28-1.68,0.55-1.68,0.55
		s-0.18,0.12-0.43,0.12c-0.26,0-0.6-0.13-0.87-0.67c-0.54-1.05-1.15-2.25-1.56-2.78c0,0-0.21-0.39-0.21-0.76
		c0-0.19,0.05-0.37,0.2-0.5c0.47-0.4,1.6-1.36,1.6-1.36s0.34-0.3,0.34-0.73c0-0.19-0.07-0.4-0.26-0.62l-0.04-0.04l-0.13-0.15
		c-0.69-0.81-1.95-2.28-1.95-2.28s-0.27-0.23-0.63-0.23c-0.18,0-0.38,0.06-0.6,0.23l-1.36,1.15c-0.01,0.02-0.25,0.33-0.68,0.33h0
		l0,0c-0.22,0-0.48-0.08-0.78-0.33l-0.01,0l-0.01-0.01l-0.03-0.02c-0.94-0.8-2.05-1.66-2.43-1.92c-0.29-0.2-0.55-0.54-0.55-0.89
		c0-0.1,0.02-0.21,0.07-0.31l0,0c0.23-0.44,0.92-1.8,0.92-1.8s0.13-0.24,0.13-0.53c0-0.25-0.1-0.54-0.46-0.72
		c-0.78-0.4-2.89-1.47-2.89-1.47s-0.17-0.09-0.4-0.09h-0.01c-0.27,0-0.61,0.12-0.88,0.6v0L97.06,9.9L97.06,9.9l-0.01,0.03
		c-0.51,0.98-0.75,1.45-0.75,1.45c-0.01,0.03-0.18,0.66-0.85,0.66l0,0l0,0c-0.14,0-0.3-0.02-0.48-0.09l-0.01,0l-0.01-0.01
		c-1.13-0.41-2.54-0.76-2.99-0.85l-0.13-0.03c-0.4-0.1-0.81-0.31-0.81-0.8l0-0.07c0.05-0.55,0.14-1.82,0.16-2.04l0.01-0.03V8.11
		c0-0.1-0.02-0.95-0.88-1.02c-0.91-0.07-3.04-0.24-3.04-0.24l-0.14-0.01H87.1c-0.29,0.01-0.85,0.13-0.93,0.98
		c-0.1,1.14-0.16,1.97-0.16,1.97s-0.02,0.65-1.1,0.74c-1.08,0.09-2.6,0.24-3.01,0.36c0,0-0.08,0.01-0.2,0.01h-0.05
		c-0.31-0.01-0.8-0.06-0.9-0.35l0-0.01c-0.15-0.45-0.69-2.14-0.69-2.14s-0.2-0.64-0.82-0.64h0c-0.1,0-0.21,0.02-0.34,0.06l-0.01,0
		c-0.78,0.25-2.44,0.79-2.85,0.92l-0.1,0.03c0,0-0.69,0.18-0.69,0.85c0,0.12,0.02,0.24,0.06,0.38c0.25,0.74,0.46,1.41,0.56,1.7
		c0.03,0.1,0.05,0.15,0.05,0.15S76,12,76,12.19c0,0.18-0.1,0.42-0.47,0.66c-0.77,0.51-2.55,1.3-3.04,1.74c0,0-0.4,0.22-0.76,0.22
		c-0.16,0-0.32-0.05-0.44-0.18c-0.31-0.37-1.17-1.37-1.4-1.64l-0.06-0.07l0,0c0,0-0.28-0.29-0.68-0.3h0c-0.17,0-0.36,0.06-0.55,0.22
		l0,0l-0.01,0.01l-0.01,0.01c-0.65,0.56-2.46,2.1-2.46,2.1s-0.3,0.26-0.3,0.66c0,0.19,0.07,0.41,0.27,0.64
		c0.62,0.73,1.35,1.6,1.35,1.6s0.17,0.11,0.17,0.38c0,0.18-0.08,0.43-0.35,0.77c-0.68,0.81-1.9,2.35-2,2.57v0l0,0.01v0l-0.01,0.01
		c-0.1,0.18-0.56,0.46-0.94,0.46c-0.08,0-0.17-0.02-0.25-0.06c-0.39-0.2-1.75-0.89-1.75-0.89s-0.25-0.15-0.56-0.15h0
		c-0.25,0-0.53,0.1-0.72,0.45l-0.01,0.01v0L61,21.47v0c-0.44,0.86-1.41,2.77-1.41,2.77s-0.15,0.26-0.15,0.56
		c0,0.25,0.11,0.53,0.48,0.73c0.84,0.43,1.86,0.95,1.86,0.95s0.41,0.13,0.41,0.78c0,0.21-0.04,0.47-0.16,0.81
		c-0.47,1.36-0.7,2.46-0.76,2.66c0,0.02-0.17,0.93-0.84,0.93l0,0h-0.06c-0.73-0.06-2.01-0.16-2.01-0.16l-0.08,0h-0.03
		c-0.26,0.01-0.87,0.1-0.96,0.82v0.02v0.01l-0.01,0.03c-0.07,0.97-0.23,2.96-0.23,2.96S57.02,35.43,57.02,35.57z M65.19,36.4
		c-0.07-12.01,9.6-21.81,21.61-21.88h0.14c11.95,0,21.67,9.65,21.75,21.61c0.07,12.01-9.6,21.81-21.61,21.88h-0.14
		C74.98,58.01,65.26,48.37,65.19,36.4z"/>
</g>
<g>
	<g>
		<path class="st1" d="M47.6,100.21c0,0.33,0.11,0.89,0.88,0.95c1.1,0.07,1.84,0.14,1.84,0.14l0.06,0l0.14,0.01l0.03,0.01l0.03,0.01
			l0.07,0.02l0.02,0.01c0.18,0.06,0.38,0.21,0.5,0.52l0,0v0.01l0,0v0v0v0l0,0v0l0,0.01v0l0,0.01v0v0.01v0v0l0,0l0.01,0.01v0v0v0
			l0,0.01v0l0,0v0l0,0.02v0.01l0,0v0.01v0l0.01,0.06l0,0.02v0.01c0.13,0.9,0.28,2.77,0.41,3.34c0.01,0.1,0.03,0.21,0.03,0.3
			c0,0.45-0.22,0.8-0.6,0.92l-1.84,0.6c0,0-0.7,0.19-0.7,0.86c0,0.11,0.02,0.24,0.06,0.39c0.32,0.99,0.92,2.84,0.92,2.84
			c0,0.01,0.15,0.74,0.88,0.74h0.01c0.12,0,0.26-0.02,0.42-0.07l0.01,0l0.01,0c1.12-0.36,1.61-0.52,1.61-0.52s0.2-0.17,0.47-0.18h0
			c0.21,0,0.46,0.11,0.68,0.49l0.01,0.02l0.01,0.01v0l0,0.01c0.51,0.93,1.42,2.59,1.66,2.91c0,0,0.27,0.42,0.27,0.81
			c0,0.17-0.05,0.34-0.2,0.46c-0.48,0.41-1.58,1.34-1.58,1.34s-0.43,0.31-0.43,0.76c0,0.18,0.07,0.38,0.25,0.59
			c0.65,0.76,2.02,2.37,2.02,2.37h0c0.02,0.03,0.29,0.37,0.74,0.37l0,0c0.21,0,0.46-0.08,0.73-0.31c0.86-0.73,1.41-1.21,1.41-1.21
			s0.09-0.14,0.27-0.21l0.21-0.04h0l0,0c0.16,0,0.37,0.07,0.61,0.25l0.01,0.01c0.73,0.58,2.03,1.63,2.53,1.97
			c0.5,0.34,0.87,0.85,0.6,1.36c-0.27,0.52-0.84,1.65-0.84,1.65s-0.6,0.92,0.32,1.39c0.91,0.47,2.85,1.46,2.85,1.46
			s0.2,0.08,0.45,0.08c0.26,0,0.57-0.08,0.75-0.44c0.35-0.69,0.9-1.75,0.9-1.75s0.12-0.55,0.81-0.56c0.16,0,0.36,0.03,0.59,0.11
			c1.21,0.39,2.43,0.74,2.74,0.78c0.3,0.04,1.15,0.29,1.09,1.05c-0.06,0.77-0.15,1.87-0.15,1.87s-0.17,1.03,1.05,1.13
			c1.22,0.1,2.77,0.22,2.77,0.22l0.1,0.01c0.27,0,1.02-0.07,1.08-0.83c0.07-0.92,0.15-1.94,0.15-1.94s-0.12-0.83,1.04-0.92
			c1.15-0.09,2.29-0.22,2.68-0.29c0.17-0.03,0.46-0.09,0.76-0.09c0.36,0,0.72,0.1,0.84,0.46c0.22,0.65,0.65,2.01,0.65,2.01
			s0.17,0.66,0.88,0.66c0.14,0,0.3-0.02,0.48-0.08c1.12-0.36,2.84-0.92,2.84-0.92s0.89-0.21,0.49-1.44
			c-0.4-1.23-0.54-1.66-0.54-1.66s-0.26-0.69,0.64-1.14c0.9-0.46,2.32-1.25,2.74-1.54c0.23-0.15,0.49-0.23,0.73-0.23
			c0.21,0,0.39,0.06,0.5,0.18c0.22,0.25,1.33,1.56,1.33,1.56s0.3,0.4,0.78,0.4c0.19,0,0.41-0.07,0.65-0.25
			c0.85-0.63,2.37-2.02,2.37-2.02s0.64-0.65,0.01-1.39c-0.63-0.74-1.24-1.45-1.24-1.45s-0.52-0.45,0.05-1.15
			c0.57-0.7,1.69-2.05,1.95-2.49c0.2-0.35,0.56-0.7,0.96-0.7c0.1,0,0.2,0.02,0.3,0.07c0.5,0.25,1.66,0.85,1.66,0.85
			s0.35,0.22,0.72,0.22c0.27,0,0.55-0.11,0.75-0.49c0.46-0.9,1.38-2.69,1.38-2.69s0.6-0.92-0.46-1.46c-1.05-0.53-1.77-0.9-1.77-0.9
			s-0.48-0.14-0.3-1.01c0.17-0.88,0.77-2.52,0.9-3.25c0.11-0.67,0.61-0.86,1.06-0.86l0.13,0.01c0.47,0.03,1.75,0.13,1.75,0.13
			l0.13,0.02c0.28,0,0.85-0.11,0.93-1.05c0.1-1.23,0.22-2.77,0.22-2.77s0.25-1.11-0.96-1.2c-1.2-0.1-1.76-0.14-1.76-0.14h-0.02
			c-0.1,0-0.85-0.04-0.93-1.09c-0.1-1.13-0.27-2.58-0.37-3.07c0,0-0.1-0.98,0.45-1.16c0.55-0.18,2.08-0.68,2.08-0.68
			s0.83-0.31,0.5-1.33c-0.33-1.02-0.95-2.91-0.95-2.91s-0.25-0.56-0.85-0.56c-0.11,0-0.23,0.02-0.36,0.06
			c-0.87,0.28-1.68,0.55-1.68,0.55s-0.18,0.12-0.43,0.12c-0.26,0-0.6-0.13-0.87-0.67c-0.54-1.05-1.15-2.25-1.56-2.78
			c0,0-0.21-0.39-0.21-0.76c0-0.19,0.05-0.37,0.2-0.5c0.47-0.4,1.6-1.36,1.6-1.36s0.34-0.3,0.34-0.73c0-0.19-0.07-0.4-0.26-0.62
			l-0.04-0.04l-0.13-0.15c-0.69-0.81-1.95-2.28-1.95-2.28s-0.27-0.23-0.63-0.23c-0.18,0-0.38,0.06-0.6,0.23l-1.36,1.15
			c-0.01,0.02-0.25,0.33-0.68,0.33h0l0,0c-0.22,0-0.48-0.08-0.78-0.33l-0.01,0l-0.01-0.01l-0.03-0.02c-0.94-0.8-2.05-1.66-2.43-1.92
			c-0.29-0.2-0.55-0.54-0.55-0.89c0-0.1,0.02-0.21,0.07-0.31l0,0c0.23-0.44,0.92-1.8,0.92-1.8s0.13-0.24,0.13-0.53
			c0-0.25-0.1-0.54-0.46-0.72c-0.78-0.4-2.89-1.47-2.89-1.47s-0.17-0.09-0.4-0.09h-0.01c-0.27,0-0.61,0.12-0.88,0.6v0l-0.01,0.02
			l-0.01,0.01l-0.01,0.03c-0.51,0.98-0.75,1.45-0.75,1.45c-0.01,0.03-0.18,0.66-0.85,0.66l0,0l0,0c-0.14,0-0.3-0.02-0.48-0.09
			l-0.01,0l-0.01-0.01c-1.13-0.41-2.54-0.76-2.99-0.85l-0.13-0.03c-0.4-0.1-0.81-0.31-0.81-0.8l0-0.08
			c0.05-0.55,0.14-1.82,0.16-2.04l0.01-0.03v-0.01c0-0.1-0.02-0.95-0.88-1.02c-0.91-0.07-3.04-0.24-3.04-0.24l-0.14-0.01h-0.02
			c-0.29,0.01-0.85,0.13-0.93,0.98c-0.1,1.14-0.16,1.97-0.16,1.97s-0.02,0.65-1.1,0.74c-1.08,0.09-2.6,0.24-3.01,0.36
			c0,0-0.08,0.01-0.2,0.01h-0.05c-0.31-0.01-0.8-0.06-0.9-0.35l0-0.01c-0.15-0.45-0.69-2.14-0.69-2.14s-0.2-0.64-0.82-0.64h0
			c-0.1,0-0.21,0.02-0.34,0.06l-0.01,0c-0.78,0.25-2.44,0.79-2.85,0.92l-0.1,0.03c0,0-0.69,0.18-0.69,0.85
			c0,0.12,0.02,0.24,0.06,0.38c0.25,0.74,0.46,1.41,0.56,1.7c0.03,0.1,0.05,0.15,0.05,0.15s0.12,0.13,0.12,0.32
			c0,0.18-0.1,0.42-0.47,0.66c-0.77,0.51-2.55,1.3-3.04,1.74c0,0-0.4,0.23-0.76,0.23c-0.16,0-0.32-0.05-0.44-0.18
			c-0.31-0.37-1.17-1.37-1.4-1.64l-0.06-0.07l0,0c0,0-0.28-0.29-0.68-0.3h0c-0.17,0-0.36,0.06-0.55,0.22l0,0l-0.01,0.01l-0.01,0.01
			c-0.65,0.56-2.46,2.1-2.46,2.1s-0.3,0.26-0.3,0.66c0,0.19,0.07,0.41,0.27,0.64c0.62,0.73,1.35,1.6,1.35,1.6s0.17,0.11,0.17,0.38
			c0,0.18-0.08,0.44-0.35,0.77c-0.68,0.81-1.9,2.35-2,2.57v0l0,0.01v0l-0.01,0.01c-0.1,0.18-0.56,0.46-0.94,0.46
			c-0.08,0-0.17-0.02-0.25-0.06c-0.39-0.2-1.75-0.89-1.75-0.89s-0.25-0.15-0.56-0.15h0c-0.25,0-0.53,0.1-0.72,0.45l-0.01,0.01v0
			l-0.02,0.03v0c-0.44,0.86-1.41,2.77-1.41,2.77s-0.15,0.26-0.15,0.56c0,0.25,0.11,0.53,0.48,0.73c0.84,0.43,1.86,0.95,1.86,0.95
			s0.41,0.13,0.41,0.78c0,0.21-0.04,0.47-0.16,0.81c-0.47,1.36-0.7,2.46-0.76,2.66c0,0.02-0.17,0.93-0.84,0.93l0,0h-0.06
			c-0.73-0.06-2.01-0.16-2.01-0.16l-0.08,0h-0.03c-0.26,0.01-0.87,0.1-0.96,0.82v0.02v0.01l-0.01,0.03
			c-0.07,0.97-0.23,2.96-0.23,2.96S47.6,100.07,47.6,100.21z M55.77,101.04c-0.07-12.01,9.6-21.81,21.61-21.88h0.14
			c11.95,0,21.67,9.65,21.75,21.61c0.07,12.01-9.6,21.81-21.61,21.88h-0.14C65.56,122.65,55.84,113.01,55.77,101.04z"/>
	</g>
</g>
<g>
	<g>
		<defs>
			<path id="SVGID_3_" d="M11.94,59.79c0,12.15,9.85,22,22,22c12.15,0,22-9.85,22-22c0-12.15-9.85-22-22-22
				C21.79,37.79,11.94,47.64,11.94,59.79z"/>
		</defs>
		<clipPath id="SVGID_4_">
			<use xlink:href="#SVGID_3_"  style="overflow:visible;"/>
		</clipPath>
	</g>
	<path class="st0" d="M4.52,59.11c0,0.33,0.11,0.89,0.88,0.95c1.1,0.07,1.84,0.14,1.84,0.14l0.06,0l0.14,0.01l0.03,0.01l0.03,0.01
		l0.07,0.02l0.02,0.01c0.18,0.06,0.38,0.21,0.5,0.52l0,0v0l0,0v0v0v0l0,0v0l0,0.01v0l0,0.01v0v0.01v0v0l0,0l0.01,0.01v0v0v0l0,0.01
		v0l0,0v0l0,0.02v0.01l0,0v0.01v0l0.01,0.06l0,0.02V61c0.13,0.9,0.28,2.77,0.41,3.34c0.01,0.1,0.03,0.21,0.03,0.3
		c0,0.45-0.22,0.8-0.6,0.92l-1.84,0.6c0,0-0.7,0.19-0.7,0.86c0,0.11,0.02,0.24,0.06,0.39c0.32,0.99,0.92,2.84,0.92,2.84
		C6.45,70.27,6.6,71,7.32,71h0.01c0.12,0,0.26-0.02,0.42-0.07l0.01,0l0.01,0c1.12-0.36,1.61-0.52,1.61-0.52s0.2-0.17,0.47-0.18h0
		c0.21,0,0.46,0.11,0.68,0.49l0.01,0.02l0.01,0.01v0l0,0.01c0.51,0.93,1.42,2.59,1.66,2.91c0,0,0.27,0.42,0.27,0.81
		c0,0.17-0.05,0.34-0.2,0.46c-0.48,0.41-1.58,1.34-1.58,1.34s-0.43,0.31-0.43,0.76c0,0.18,0.07,0.38,0.25,0.59
		c0.65,0.76,2.02,2.37,2.02,2.37h0c0.02,0.03,0.29,0.37,0.74,0.37l0,0c0.21,0,0.46-0.08,0.73-0.31c0.86-0.73,1.41-1.21,1.41-1.21
		s0.09-0.14,0.27-0.21l0.21-0.04h0l0,0c0.16,0,0.37,0.07,0.61,0.25l0.01,0.01c0.73,0.58,2.03,1.63,2.53,1.97
		c0.5,0.34,0.87,0.85,0.6,1.36c-0.27,0.52-0.84,1.65-0.84,1.65s-0.6,0.92,0.32,1.39c0.91,0.47,2.85,1.46,2.85,1.46
		s0.2,0.08,0.45,0.08c0.26,0,0.57-0.08,0.75-0.44c0.35-0.69,0.9-1.75,0.9-1.75s0.12-0.55,0.81-0.56c0.16,0,0.36,0.03,0.59,0.11
		c1.21,0.39,2.43,0.74,2.74,0.78c0.3,0.04,1.15,0.29,1.09,1.05c-0.06,0.77-0.15,1.87-0.15,1.87s-0.17,1.03,1.05,1.13
		c1.22,0.1,2.77,0.22,2.77,0.22l0.1,0.01c0.27,0,1.02-0.07,1.08-0.83c0.07-0.92,0.15-1.94,0.15-1.94s-0.12-0.83,1.04-0.92
		c1.15-0.09,2.29-0.22,2.68-0.29c0.17-0.03,0.46-0.09,0.76-0.09c0.36,0,0.72,0.1,0.84,0.46c0.22,0.65,0.65,2.01,0.65,2.01
		s0.17,0.66,0.88,0.66c0.14,0,0.3-0.02,0.48-0.08c1.12-0.36,2.85-0.92,2.85-0.92s0.89-0.21,0.49-1.44c-0.4-1.23-0.54-1.66-0.54-1.66
		s-0.26-0.69,0.64-1.14c0.9-0.46,2.32-1.25,2.74-1.54c0.23-0.15,0.49-0.22,0.73-0.22c0.21,0,0.39,0.06,0.5,0.18
		c0.22,0.25,1.33,1.56,1.33,1.56s0.3,0.4,0.78,0.4c0.19,0,0.41-0.07,0.65-0.25c0.85-0.63,2.37-2.02,2.37-2.02s0.64-0.66,0.01-1.39
		C53.6,78.97,53,78.26,53,78.26s-0.52-0.45,0.05-1.15c0.57-0.7,1.69-2.05,1.95-2.49c0.2-0.35,0.57-0.71,0.96-0.71
		c0.1,0,0.2,0.02,0.3,0.07c0.5,0.25,1.66,0.85,1.66,0.85s0.35,0.22,0.72,0.22c0.27,0,0.55-0.11,0.75-0.49
		c0.46-0.9,1.38-2.69,1.38-2.69s0.6-0.92-0.46-1.46c-1.05-0.53-1.77-0.9-1.77-0.9s-0.48-0.14-0.3-1.01c0.17-0.88,0.77-2.52,0.9-3.25
		c0.11-0.67,0.61-0.86,1.06-0.86l0.13,0.01c0.47,0.03,1.75,0.13,1.75,0.13l0.13,0.02c0.28,0,0.85-0.11,0.93-1.05
		c0.1-1.23,0.22-2.77,0.22-2.77s0.25-1.11-0.96-1.2c-1.2-0.1-1.76-0.14-1.76-0.14h-0.02c-0.1,0-0.85-0.04-0.93-1.09
		c-0.1-1.13-0.27-2.58-0.37-3.07c0,0-0.1-0.98,0.45-1.16c0.55-0.18,2.08-0.68,2.08-0.68s0.83-0.31,0.5-1.33
		c-0.33-1.02-0.95-2.91-0.95-2.91s-0.25-0.56-0.85-0.56c-0.11,0-0.23,0.02-0.36,0.06c-0.87,0.28-1.68,0.55-1.68,0.55
		s-0.18,0.12-0.43,0.12c-0.26,0-0.6-0.13-0.87-0.67c-0.54-1.05-1.15-2.25-1.56-2.78c0,0-0.21-0.39-0.21-0.76
		c0-0.19,0.05-0.37,0.2-0.5c0.47-0.4,1.6-1.36,1.6-1.36s0.34-0.3,0.34-0.73c0-0.19-0.07-0.4-0.26-0.62l-0.04-0.04l-0.13-0.15
		c-0.69-0.81-1.95-2.28-1.95-2.28s-0.27-0.23-0.63-0.23c-0.18,0-0.38,0.06-0.6,0.23l-1.36,1.15c-0.01,0.02-0.25,0.33-0.68,0.33h0
		l0,0c-0.22,0-0.48-0.08-0.78-0.33l-0.01,0l-0.01-0.01l-0.03-0.02c-0.94-0.8-2.05-1.66-2.43-1.92c-0.29-0.2-0.55-0.54-0.55-0.88
		c0-0.1,0.02-0.21,0.07-0.31l0,0c0.23-0.44,0.92-1.8,0.92-1.8s0.13-0.24,0.13-0.53c0-0.25-0.1-0.54-0.46-0.72
		c-0.78-0.4-2.89-1.47-2.89-1.47s-0.17-0.09-0.4-0.09h-0.01c-0.27,0-0.61,0.12-0.88,0.6v0l-0.01,0.02l-0.01,0.01l-0.01,0.03
		c-0.51,0.98-0.75,1.45-0.75,1.45c-0.01,0.03-0.18,0.66-0.85,0.66l0,0l0,0c-0.14,0-0.3-0.02-0.48-0.09l-0.01,0l-0.01-0.01
		c-1.13-0.41-2.54-0.76-2.99-0.85l-0.13-0.03c-0.4-0.1-0.81-0.31-0.81-0.8l0-0.07c0.05-0.55,0.14-1.82,0.16-2.04l0.01-0.03v-0.01
		c0-0.1-0.02-0.95-0.88-1.02c-0.91-0.07-3.04-0.24-3.04-0.24l-0.14-0.01H34.6c-0.29,0.01-0.85,0.13-0.93,0.98
		c-0.1,1.14-0.16,1.97-0.16,1.97s-0.02,0.65-1.1,0.74c-1.08,0.09-2.6,0.24-3.01,0.36c0,0-0.08,0.01-0.2,0.01h-0.05
		c-0.31-0.01-0.8-0.06-0.9-0.35l0-0.01c-0.15-0.45-0.69-2.14-0.69-2.14s-0.2-0.64-0.82-0.64h0c-0.1,0-0.21,0.02-0.34,0.06l-0.01,0
		c-0.78,0.25-2.44,0.79-2.85,0.92l-0.1,0.03c0,0-0.69,0.18-0.69,0.85c0,0.12,0.02,0.24,0.06,0.38c0.25,0.74,0.46,1.41,0.56,1.7
		c0.03,0.1,0.05,0.15,0.05,0.15s0.12,0.13,0.12,0.32c0,0.18-0.1,0.42-0.47,0.66c-0.77,0.51-2.55,1.3-3.04,1.74
		c0,0-0.4,0.22-0.76,0.22c-0.16,0-0.32-0.05-0.44-0.18c-0.31-0.37-1.17-1.37-1.4-1.64l-0.06-0.07l0,0c0,0-0.28-0.29-0.68-0.3h0
		c-0.17,0-0.36,0.06-0.55,0.22l0,0L16.1,36.4l-0.01,0.01c-0.65,0.56-2.46,2.1-2.46,2.1s-0.3,0.26-0.3,0.66
		c0,0.19,0.07,0.41,0.27,0.64c0.62,0.73,1.35,1.6,1.35,1.6s0.17,0.11,0.17,0.38c0,0.18-0.08,0.44-0.35,0.77
		c-0.68,0.81-1.9,2.35-2,2.57v0l0,0.01v0l-0.01,0.01c-0.1,0.18-0.56,0.46-0.94,0.46c-0.08,0-0.17-0.02-0.25-0.06
		c-0.39-0.2-1.75-0.89-1.75-0.89s-0.25-0.15-0.56-0.15h0c-0.25,0-0.53,0.1-0.72,0.45l-0.01,0.01v0L8.5,45.01v0
		c-0.44,0.86-1.41,2.77-1.41,2.77s-0.15,0.26-0.15,0.56c0,0.25,0.11,0.53,0.48,0.73c0.84,0.43,1.86,0.95,1.86,0.95
		s0.41,0.13,0.41,0.78c0,0.21-0.04,0.47-0.16,0.81c-0.47,1.36-0.7,2.46-0.76,2.66c0,0.02-0.17,0.93-0.84,0.93l0,0H7.87
		c-0.73-0.06-2.01-0.16-2.01-0.16l-0.08,0H5.74c-0.26,0.01-0.87,0.1-0.96,0.82v0.02v0.01l-0.01,0.03c-0.07,0.97-0.23,2.96-0.23,2.96
		S4.52,58.97,4.52,59.11z M12.69,59.94c-0.07-12.01,9.6-21.81,21.61-21.88h0.14c11.95,0,21.67,9.65,21.75,21.61
		c0.07,12.01-9.6,21.81-21.61,21.88h-0.14C22.49,81.55,12.77,71.91,12.69,59.94z"/>
</g>
<g>
	<g>
		<g>
			<polygon class="st1" points="70.61,116.01 67.01,113.68 76.02,99.95 79.62,102.28 			"/>
			
				<rect x="73.5" y="103.03" transform="matrix(0.5445 -0.8388 0.8388 0.5445 -53.9632 110.9754)" class="st5" width="3.39" height="4.29"/>
			<path class="st1" d="M76.9,102.54c4.06,2.64,9.49,1.48,12.13-2.58c2.64-4.06,1.48-9.49-2.58-12.13
				c-4.06-2.64-9.49-1.48-12.13,2.58C71.68,94.47,72.84,99.9,76.9,102.54z M76.21,91.64c1.96-3.02,5.99-3.88,9.01-1.92
				c3.02,1.96,3.88,5.99,1.92,9.01c-1.96,3.02-5.99,3.88-9.01,1.92C75.11,98.68,74.25,94.65,76.21,91.64z"/>
		</g>
	</g>
</g>
<circle class="st6" cx="25.57" cy="54.32" r="8.03"/>
<circle class="st6" cx="25.57" cy="54.32" r="6.4"/>
<line class="st6" x1="21.04" y1="60.95" x2="19.75" y2="62.68"/>
<polygon class="st6" points="20.88,63.77 18.78,61.71 13.98,67.45 16.15,69.61 "/>
<line class="st7" x1="17.72" y1="67.68" x2="15.48" y2="65.66"/>
<circle class="st6" cx="40.96" cy="49.94" r="4.12"/>
<circle class="st6" cx="30.25" cy="48.4" r="4.12"/>
<path class="st6" d="M49.09,71.75H34.83V61.48c0-2.84,2.3-5.14,5.14-5.14h3.98c2.84,0,5.14,2.3,5.14,5.14V71.75z"/>
<path class="st6" d="M38.63,71.75H21.76V60.48c0-3.12,2.72-5.64,6.08-5.64h4.71c3.36,0,6.08,2.53,6.08,5.64V71.75z"/>
<line class="st6" x1="45.51" y1="61" x2="45.51" y2="71.75"/>
<line class="st6" x1="35.35" y1="61" x2="35.35" y2="71.75"/>
<line class="st6" x1="25.2" y1="71.75" x2="25.2" y2="62.57"/>
</svg>
